<svg xmlns="http://www.w3.org/2000/svg" xmlns:xlink="http://www.w3.org/1999/xlink" xmlns:serif="http://www.serif.com/" width="100%" height="100%" viewBox="0 0 658 403" xml:space="preserve" style="fill-rule:evenodd;clip-rule:evenodd;stroke-linejoin:round;stroke-miterlimit:2;">    <g transform="matrix(1,0,0,1,-2285,0)">        <g transform="matrix(1,0,0,1,-64.8979,-371.395)">            <rect id="Trusted-Servants-Logo-2023" serif:id="Trusted Servants Logo 2023" x="2350.33" y="371.395" width="657.242" height="402.063" style="fill:none;"></rect>            <g id="Trusted-Servants-Logo-20231" serif:id="Trusted Servants Logo 2023">                <g transform="matrix(1.95025,0,0,2.86932,-1942.35,5.68434e-14)">                    <g transform="matrix(0.508113,0,0,0.345359,1207.14,0.978227)">                        <path d="M2460.81,777.691C2425.69,777.691 2392.34,772.24 2360.77,761.338C2329.2,750.437 2301.28,734.084 2276.99,712.281L2337.52,639.83C2376.75,671.213 2419.15,686.905 2464.73,686.905C2479.3,686.905 2490.41,684.574 2498.07,679.913C2505.73,675.251 2509.56,668.63 2509.56,660.049L2509.56,658.937C2509.56,654.833 2508.63,651.196 2506.76,648.026C2504.89,644.857 2501.44,641.78 2496.39,638.797C2491.35,635.814 2484.62,632.923 2476.22,630.124C2467.81,627.325 2456.88,624.434 2443.43,621.451C2422.51,616.606 2403.09,611.292 2385.15,605.51C2367.22,599.728 2351.62,592.269 2338.36,583.133C2325.1,573.997 2314.63,562.622 2306.97,549.009C2299.32,535.396 2295.49,518.519 2295.49,498.38L2295.49,497.268C2295.49,478.99 2298.94,462.206 2305.85,446.914C2312.77,431.623 2322.85,418.383 2336.12,407.195C2349.38,396.007 2365.35,387.337 2384.03,381.184C2402.71,375.031 2423.82,371.955 2447.36,371.955C2480.98,371.955 2510.96,376.373 2537.3,385.208C2563.64,394.043 2587.46,407.106 2608.76,424.397L2554.39,501.409C2536.46,488.707 2518.06,479.087 2499.2,472.548C2480.33,466.01 2462.12,462.741 2444.55,462.741C2431.48,462.741 2421.67,465.165 2415.13,470.013C2408.6,474.862 2405.33,480.829 2405.33,487.916L2405.33,489.037C2405.33,493.508 2406.35,497.422 2408.41,500.779C2410.46,504.136 2414.01,507.213 2419.06,510.013C2424.1,512.812 2431.01,515.609 2439.79,518.406C2448.57,521.202 2459.69,524.091 2473.14,527.074C2495.55,531.92 2515.82,537.605 2533.94,544.132C2552.06,550.658 2567.47,558.584 2580.17,567.91C2592.88,577.235 2602.59,588.518 2609.32,601.758C2616.04,614.997 2619.4,630.753 2619.4,649.025L2619.4,650.145C2619.4,670.285 2615.57,688.186 2607.91,703.848C2600.26,719.511 2589.51,732.844 2575.69,743.847C2561.87,754.851 2545.24,763.243 2525.81,769.022C2506.39,774.801 2484.72,777.691 2460.81,777.691Z" style="fill:white;fill-rule:nonzero;"></path>                    </g>                    <g transform="matrix(0.512755,0,0,0.348514,995.947,0)">                        <path d="M2657.02,482.356L2596.91,482.356L2596.91,763.681L2465.78,763.681L2465.78,482.356L2350.33,482.356L2350.33,371.395L2723.62,371.395C2717.91,375.072 2712.52,379.05 2707.46,383.322C2690.78,397.387 2678.14,414.061 2669.45,433.285C2662.59,448.461 2658.41,464.809 2657.02,482.356Z" style="fill:white;fill-rule:nonzero;"></path>                    </g>                </g>            </g>        </g>    </g></svg>