<svg xmlns="http://www.w3.org/2000/svg" xmlns:xlink="http://www.w3.org/1999/xlink" xmlns:serif="http://www.serif.com/" width="100%" height="100%" viewBox="0 0 1647 321" xml:space="preserve" style="fill-rule:evenodd;clip-rule:evenodd;stroke-linejoin:round;stroke-miterlimit:2;">    <g transform="matrix(1,0,0,1,-592,-2878)">        <g transform="matrix(2.74606,0,0,1.0176,-587.141,-51.029)">            <rect id="Logo-Hands" serif:id="Logo Hands" x="429.564" y="2878.36" width="599.436" height="314.628" style="fill:none;"></rect>            <g id="Logo-Hands1" serif:id="Logo Hands">                <g>                    <g transform="matrix(0.697958,0,0,1.88348,591.491,2201.87)">                        <path d="M211.67,524.684C200.095,524.684 189.421,522.579 179.65,518.37C169.879,514.161 161.401,508.411 154.217,501.12C147.033,493.829 141.396,485.223 137.306,475.302C133.215,465.38 131.17,454.782 131.17,443.508L131.17,443.057C131.17,431.782 133.177,421.222 137.191,411.375C141.205,401.529 146.843,392.885 154.103,385.444C161.363,378.003 169.954,372.14 179.876,367.856C189.797,363.572 200.771,361.43 212.797,361.43C220.013,361.43 226.59,362.031 232.527,363.233C238.465,364.436 243.915,366.127 248.875,368.307C253.836,370.487 258.421,373.08 262.63,376.086C266.839,379.093 270.823,382.4 274.581,386.008L256.768,406.527C250.454,400.665 243.764,395.929 236.699,392.322C229.634,388.714 221.591,386.91 212.572,386.91C205.055,386.91 198.103,388.376 191.714,391.307C185.325,394.238 179.8,398.222 175.14,403.258C170.48,408.294 166.872,414.194 164.317,420.959C161.761,427.723 160.484,434.939 160.484,442.606L160.484,443.057C160.484,450.723 161.761,457.977 164.317,464.816C166.872,471.656 170.48,477.632 175.14,482.743C179.8,487.854 185.325,491.875 191.714,494.807C198.103,497.738 205.055,499.204 212.572,499.204C222.193,499.204 230.46,497.362 237.375,493.679C244.29,489.996 251.13,484.998 257.895,478.684L275.709,496.723C271.65,501.083 267.403,504.954 262.969,508.336C258.534,511.718 253.761,514.65 248.65,517.13C243.539,519.61 237.939,521.49 231.851,522.767C225.763,524.045 219.036,524.684 211.67,524.684Z" style="fill:rgb(11,92,255);fill-rule:nonzero;"></path>                        <g transform="matrix(0.521747,0,0,0.521747,-199.131,-1142.42)">                            <path d="M1040,3026.45L993.133,2973.95L993.133,3190.05L940.407,3190.05L940.407,2922.95C940.407,2913.55 944.14,2904.54 950.785,2897.9C957.43,2891.25 966.442,2887.52 975.84,2887.52L980.999,2887.52C991.185,2887.52 1000.88,2891.9 1007.61,2899.55C1029.48,2924.41 1077.63,2979.16 1077.63,2979.16L1053.52,3005.96C1048.05,3012.2 1043.56,3017.39 1040,3026.45ZM1137.84,2935.79C1137.84,2935.79 1157.76,2913.59 1170.57,2899.3C1177.29,2891.8 1186.88,2887.52 1196.95,2887.52L1202.31,2887.52C1211.71,2887.52 1220.72,2891.25 1227.37,2897.9C1234.01,2904.54 1237.75,2913.55 1237.75,2922.95L1237.75,3190.05L1185.02,3190.05L1185.02,2973.09C1185.02,2973.09 1124.78,3036.06 1099.98,3061.98C1091.16,3071.2 1077.2,3073.27 1066.08,3067C1065.38,3066.61 1064.71,3066.19 1064.06,3065.76C1057.52,3061.42 1053.19,3054.45 1052.17,3046.67C1051.16,3038.89 1053.56,3031.04 1058.77,3025.17C1079.77,3001.36 1137.84,2935.79 1137.84,2935.79Z" style="fill:rgb(11,92,255);fill-rule:nonzero;"></path>                        </g>                        <g transform="matrix(1,0,0,1,10.4349,0)">                            <path d="M559.6,459.292L532.316,396.155L505.257,459.292L559.6,459.292ZM517.492,368.551C518.963,365.184 522.289,363.008 525.963,363.008C530.066,363.008 535.468,363.008 539.571,363.008C543.245,363.008 546.57,365.184 548.041,368.551C560.315,396.645 615.07,521.978 615.07,521.978L585.757,521.978L569.747,483.87L495.11,483.87L478.875,521.978L450.463,521.978C450.463,521.978 505.219,396.645 517.492,368.551Z" style="fill:rgb(11,92,255);fill-rule:nonzero;"></path>                        </g>                    </g>                    <g transform="matrix(0.697958,0,0,1.88348,338.547,2201.02)">                        <path d="M193.472,483.194C206.597,483.194 217.158,479.736 225.155,472.821C233.152,465.906 237.15,456.06 237.15,443.282L237.15,442.831C237.15,430.204 233.152,420.395 225.155,413.405C217.158,406.415 206.597,402.92 193.472,402.92L175.591,402.92L175.591,483.194L193.472,483.194ZM131.846,364.135L192.729,364.135C206.859,364.135 219.449,366.052 230.498,369.885C241.547,373.719 250.867,379.093 258.459,386.008C266.05,392.923 271.838,401.153 275.821,410.699C279.805,420.245 281.797,430.73 281.797,442.155L281.797,442.606C281.797,454.031 279.768,464.591 275.709,474.287C271.65,483.983 265.787,492.364 258.121,499.429C250.454,506.494 241.021,512.019 229.822,516.003C218.622,519.986 205.957,521.978 191.827,521.978L131.846,521.978L131.846,364.135Z" style="fill:rgb(11,92,255);fill-rule:nonzero;"></path>                        <g transform="matrix(1,0,0,1,1.04349,0)">                            <path d="M374.699,525.135C363.424,525.135 352.826,523.106 342.905,519.047C332.983,514.988 324.377,509.313 317.086,502.022C309.795,494.731 304.008,486.088 299.723,476.091C295.439,466.094 293.297,455.233 293.297,443.508L293.297,443.057C293.297,431.632 295.401,420.921 299.611,410.924C303.82,400.928 309.607,392.209 316.973,384.768C324.339,377.327 333.096,371.501 343.243,367.292C353.39,363.083 364.476,360.979 376.503,360.979C384.62,360.979 391.986,361.768 398.6,363.346C405.215,364.925 411.265,367.18 416.752,370.111C422.239,373.042 427.2,376.537 431.635,380.596C436.069,384.655 440.015,389.09 443.473,393.9L410.551,419.38C406.042,413.668 401.081,409.158 395.669,405.851C390.257,402.544 383.718,400.89 376.052,400.89C370.489,400.89 365.416,401.98 360.831,404.16C356.246,406.34 352.3,409.308 348.993,413.067C345.686,416.825 343.092,421.259 341.213,426.371C339.334,431.482 338.395,436.893 338.395,442.606L338.395,443.057C338.395,448.919 339.334,454.444 341.213,459.63C343.092,464.816 345.686,469.289 348.993,473.047C352.3,476.805 356.246,479.774 360.831,481.954C365.416,484.133 370.489,485.223 376.052,485.223C380.11,485.223 383.831,484.772 387.213,483.87C390.596,482.968 393.677,481.653 396.458,479.924C399.239,478.196 401.87,476.166 404.35,473.836C406.831,471.506 409.274,468.913 411.679,466.057L444.6,489.508C440.842,494.619 436.746,499.354 432.311,503.713C427.877,508.073 422.841,511.831 417.203,514.988C411.566,518.145 405.252,520.625 398.262,522.429C391.272,524.233 383.418,525.135 374.699,525.135Z" style="fill:rgb(11,92,255);fill-rule:nonzero;"></path>                        </g>                    </g>                </g>            </g>        </g>    </g></svg>